<?xml version="1.0" encoding="UTF-8"?>
<svg version="1.1" xmlns="http://www.w3.org/2000/svg" width="283" height="336">
<path d="M0 0 C-1 3 -1 3 -3.3125 5.25 C-6.33112252 8.33882304 -7.98940104 11.20220196 -10 15 C-8.515 15.495 -8.515 15.495 -7 16 C-7.1875 18.3125 -7.1875 18.3125 -8 21 C-10.69368982 22.98065428 -13.55959405 24.27488831 -16.5625 25.75 C-20.63685304 28.04292595 -21.87740736 30.90120042 -24 35 C-24.66 35.61875 -25.32 36.2375 -26 36.875 C-29.02305448 40.08699539 -30.33891119 43.96035679 -32 48 C-32.495 48.99 -32.495 48.99 -33 50 C-28.71 50 -24.42 50 -20 50 C-18.68 47.36 -17.36 44.72 -16 42 C-15.01 42 -14.02 42 -13 42 C-13.06042889 44.54405638 -13.14759028 47.08256731 -13.25 49.625 C-13.26417969 50.33785156 -13.27835937 51.05070312 -13.29296875 51.78515625 C-13.6991033 60.63888953 -19.20299486 65.57117837 -25.265625 71.53515625 C-28.57053212 74.51429395 -32.04416835 77.01234365 -35.7734375 79.4296875 C-39.00315899 81.70749108 -41.53820781 83.61997714 -42.82128906 87.4543457 C-43.04123535 88.8014563 -43.04123535 88.8014563 -43.265625 90.17578125 C-43.43320313 91.16900391 -43.60078125 92.16222656 -43.7734375 93.18554688 C-44.00933594 94.73338867 -44.00933594 94.73338867 -44.25 96.3125 C-44.42273438 97.33279297 -44.59546875 98.35308594 -44.7734375 99.40429688 C-45.63026845 104.6642869 -46.21040489 109.67224769 -46 115 C-46.59941406 115.18820313 -47.19882813 115.37640625 -47.81640625 115.5703125 C-50.96402215 117.63118445 -51.7197385 120.47005817 -52.9375 123.875 C-53.45870425 125.25686199 -53.98084932 126.63836947 -54.50390625 128.01953125 C-54.7580127 128.70225098 -55.01211914 129.3849707 -55.27392578 130.08837891 C-56.2328569 132.61306978 -57.30079065 135.08494646 -58.375 137.5625 C-61.18706058 144.25138195 -63.6150341 151.07827152 -66.05810547 157.90844727 C-66.70458222 159.71105448 -67.35716505 161.51148461 -68.01611328 163.30957031 C-68.69184353 165.15734881 -69.35081237 167.01131687 -69.99560547 168.87011719 C-70.3257666 169.77665039 -70.65592773 170.68318359 -70.99609375 171.6171875 C-71.28540771 172.43558105 -71.57472168 173.25397461 -71.87280273 174.09716797 C-73 176 -73 176 -74.99584961 176.79785156 C-78.67548367 177.1689975 -81.85067123 175.83826459 -85 174 C-86.5 171.3125 -86.5 171.3125 -87 169 C-88.051875 169.04125 -89.10375 169.0825 -90.1875 169.125 C-93.74010173 169.00852125 -95.84866641 168.52791932 -99 167 C-100.21689301 161.41237291 -99.60582087 157.66650088 -97.4375 152.5 C-97.16228516 151.80640381 -96.88707031 151.11280762 -96.60351562 150.39819336 C-95.75116466 148.25882155 -94.87757692 146.12912974 -94 144 C-92.99537293 141.52267383 -91.99785186 139.04257213 -91 136.5625 C-90.75306396 135.95341797 -90.50612793 135.34433594 -90.25170898 134.71679688 C-88.07909165 129.31453696 -86.15659007 123.83686776 -84.25 118.33618164 C-82.18497383 112.42006989 -79.86925208 106.63672173 -77.5078125 100.83203125 C-75.55081033 95.93952583 -73.84028985 90.96240052 -72.109375 85.98657227 C-70.54119112 81.49197157 -68.87755012 77.0603702 -67.05859375 72.66015625 C-66.19529014 70.49074756 -65.38549316 68.31830088 -64.59765625 66.12109375 C-61.97751388 58.85059899 -59.34052062 52.4487735 -55 46 C-54.82984375 45.319375 -54.6596875 44.63875 -54.484375 43.9375 C-53.78036371 41.12145485 -52.17193811 39.84285658 -50 38 C-49.34 38 -48.68 38 -48 38 C-47.95875 37.443125 -47.9175 36.88625 -47.875 36.3125 C-46.78722451 33.43766477 -45.04313755 32.25404638 -42.66015625 30.40625 C-40.94691374 28.95503281 -39.64840957 27.44049206 -38.25 25.6875 C-33.77337322 20.29918422 -28.06169152 16.3070156 -22.49609375 12.11328125 C-17.82051139 8.59015434 -17.82051139 8.59015434 -13.9375 4.25 C-10.31196996 0.03970705 -5.33014025 -1.73705464 0 0 Z M-66.5546875 114.265625 C-70.64311068 120.4103557 -72.92237942 126.95135086 -75.23803711 133.90356445 C-77.67860163 141.230656 -80.4910046 148.35717238 -83.51123047 155.46411133 C-85.82975118 161.02185543 -85.82975118 161.02185543 -86 167 C-82.73463372 164.36664009 -81.66436439 161.01794012 -80.3125 157.1875 C-79.93230713 156.15471924 -79.93230713 156.15471924 -79.54443359 155.10107422 C-78.00172876 150.88940672 -76.54209526 146.65388345 -75.11328125 142.40234375 C-68.99863946 124.4917156 -68.99863946 124.4917156 -62.56640625 117.70703125 C-60.76576703 115.97798913 -60.76576703 115.97798913 -60 113 C-63.55030961 112.62492432 -63.55030961 112.62492432 -66.5546875 114.265625 Z " fill="#0B0B0B" transform="translate(219,22)"/>
<path d="M0 0 C4.94749285 0.07327747 9.23733821 1.87254373 13.796875 3.6484375 C14.64636719 3.96554688 15.49585938 4.28265625 16.37109375 4.609375 C19.90108104 5.94775881 22.88764969 7.16728729 26.046875 9.2734375 C26.46220237 12.45761404 26.65864809 14.428608 24.734375 17.0859375 C24.1775 17.8078125 23.620625 18.5296875 23.046875 19.2734375 C21.90513348 22.23065091 20.96109695 25.2389987 20.046875 28.2734375 C19.056875 28.2734375 18.066875 28.2734375 17.046875 28.2734375 C16.99789062 28.84191406 16.94890625 29.41039062 16.8984375 29.99609375 C16.54172015 33.68012295 16.12046871 37.02965834 15.046875 40.5859375 C12.02274557 51.73741478 12.93895521 63.80995722 13.046875 75.2734375 C14.036875 75.2734375 15.026875 75.2734375 16.046875 75.2734375 C16.046875 76.2634375 16.046875 77.2534375 16.046875 78.2734375 C15.28375 78.0671875 14.520625 77.8609375 13.734375 77.6484375 C10.82801556 76.93952547 10.82801556 76.93952547 8.046875 79.2734375 C6.58012597 79.7893658 5.09926478 80.26623178 3.609375 80.7109375 C0.21827839 81.78992279 -2.20420345 82.9643434 -4.953125 85.2734375 C-5.613125 85.2734375 -6.273125 85.2734375 -6.953125 85.2734375 C-6.953125 85.9334375 -6.953125 86.5934375 -6.953125 87.2734375 C-7.943125 88.0159375 -8.933125 88.7584375 -9.953125 89.5234375 C-16.59089483 94.95802705 -20.24645365 103.70957007 -23.953125 111.2734375 C-29.828125 109.3984375 -29.828125 109.3984375 -30.953125 108.2734375 C-31.48741612 102.3962352 -30.09669642 97.22854328 -28.609375 91.5546875 C-27.33120602 85.1638426 -28.06730563 79.89469075 -29.765625 73.6484375 C-30.27029297 71.74191406 -30.27029297 71.74191406 -30.78515625 69.796875 C-31.78406071 66.29633408 -31.78406071 66.29633408 -33.65234375 63.625 C-34.953125 61.2734375 -34.953125 61.2734375 -34.93359375 58.7890625 C-33.64020909 55.47057756 -31.75219185 53.56575697 -29.265625 51.0234375 C-22.57409098 43.96621994 -17.89354739 36.41737391 -13.34765625 27.8515625 C-11.953125 25.2734375 -11.953125 25.2734375 -10.3515625 22.77734375 C-8.8673528 20.11986213 -8.28334079 17.94775936 -7.765625 14.9609375 C-7.52779297 13.63642578 -7.52779297 13.63642578 -7.28515625 12.28515625 C-7.12080078 11.28935547 -7.12080078 11.28935547 -6.953125 10.2734375 C-5.963125 9.9434375 -4.973125 9.6134375 -3.953125 9.2734375 C-3.97375 7.9740625 -3.994375 6.6746875 -4.015625 5.3359375 C-4.03711954 3.98178117 -4.02460699 2.62587667 -3.953125 1.2734375 C-2.953125 0.2734375 -2.953125 0.2734375 0 0 Z M-8.953125 57.2734375 C-10.66962173 59.00586186 -10.66962173 59.00586186 -11.953125 61.2734375 C-11.73595148 63.48144278 -11.73595148 63.48144278 -10.953125 65.2734375 C-9.963125 64.6134375 -8.973125 63.9534375 -7.953125 63.2734375 C-7.7029093 60.18977879 -7.7029093 60.18977879 -7.953125 57.2734375 C-8.283125 57.2734375 -8.613125 57.2734375 -8.953125 57.2734375 Z " fill="#0C0C0C" transform="translate(111.953125,204.7265625)"/>
<path d="M0 0 C1.5480957 1.24438477 1.5480957 1.24438477 3.17578125 2.81640625 C6.94478263 6.15876558 10.66584202 7.82909187 15.375 9.5 C16.15375488 9.79060303 16.93250977 10.08120605 17.73486328 10.38061523 C21.64840988 11.82994541 25.58526703 13.20824996 29.53125 14.56640625 C30.97922837 15.06492498 32.4271462 15.56361958 33.875 16.0625 C34.57866699 16.30395752 35.28233398 16.54541504 36.00732422 16.79418945 C41.35986572 18.67204257 46.32366783 21.04865221 51.3515625 23.6796875 C58.24680209 27.11713733 65.13909522 28.54956111 72.75 29.4375 C76 30 76 30 78 32 C78.3359375 34.49609375 78.3359375 34.49609375 78.375 37.4375 C78.40335937 38.40558594 78.43171875 39.37367188 78.4609375 40.37109375 C78 43 78 43 76.19140625 44.81640625 C72.90949943 46.58898694 70.66738161 46.51472023 67 46 C64.3125 43.6875 64.3125 43.6875 62 41 C58.10221382 37.45738592 53.39972656 36.45547615 48.45898438 35.0703125 C43.39021275 33.58438523 38.71812593 31.57794402 33.93334961 29.34667969 C28.87149665 27.02281944 23.71195827 24.93324263 18.5625 22.8125 C16.45908787 21.94533738 14.35620056 21.07690034 12.25390625 20.20703125 C11.33939697 19.8303833 10.4248877 19.45373535 9.48266602 19.06567383 C7 18 7 18 4.85571289 16.87915039 C1.39633262 15.24025704 -2.54955379 15.64047655 -6.3203125 15.5390625 C-9 15 -9 15 -10.375 13.21484375 C-11.38594466 9.63230861 -11.03320785 6.55212335 -10 3 C-7.13094462 -0.40036193 -4.28806214 -0.75671685 0 0 Z " fill="#0C0C0C" transform="translate(94,179)"/>
<path d="M0 0 C6.33225643 -0.48114839 11.08406742 1.1942372 16.9375 3.5 C17.81212891 3.83386719 18.68675781 4.16773438 19.58789062 4.51171875 C21.72945844 5.3308977 23.86635492 6.16044942 26 7 C26 7.99 26 8.98 26 10 C25.29617187 9.68546875 24.59234375 9.3709375 23.8671875 9.046875 C16.0364652 5.65288048 8.24479322 3.1831627 0 1 C0 0.67 0 0.34 0 0 Z " fill="#020202" transform="translate(109,205)"/>
<path d="M0 0 C2.875 -0.125 2.875 -0.125 6 0 C8.59400506 2.59400506 8.32711615 3.83184616 8.375 7.4375 C8.40335938 8.40558594 8.43171875 9.37367188 8.4609375 10.37109375 C8 13 8 13 6.1484375 14.8359375 C3.58507364 16.22481465 1.87388305 16.23949025 -1 16 C0.39316877 13.21366246 2.15980516 13.06507306 5 12 C6.49743119 10.50256881 6.33202693 9.01175761 6.5625 6.9375 C6.706875 5.638125 6.85125 4.33875 7 3 C6.34 3 5.68 3 5 3 C5 2.34 5 1.68 5 1 C3.35 1 1.7 1 0 1 C0 0.67 0 0.34 0 0 Z " fill="#040404" transform="translate(164,209)"/>
<path d="M0 0 C1 2 1 2 0.22265625 4.8203125 C-0.16019531 5.91085937 -0.54304688 7.00140625 -0.9375 8.125 C-1.31777344 9.22070312 -1.69804688 10.31640625 -2.08984375 11.4453125 C-2.39019531 12.28835938 -2.69054687 13.13140625 -3 14 C-3.66 13.67 -4.32 13.34 -5 13 C-4.48474397 7.71862571 -2.74522883 4.42778844 0 0 Z " fill="#040404" transform="translate(93,288)"/>
<path d="M0 0 C1.32 0.66 2.64 1.32 4 2 C3.07960937 2.35191406 3.07960937 2.35191406 2.140625 2.7109375 C-0.5630421 4.3390582 -1.09053534 5.72633836 -2.25 8.625 C-2.58515625 9.44226563 -2.9203125 10.25953125 -3.265625 11.1015625 C-3.50796875 11.72804687 -3.7503125 12.35453125 -4 13 C-5 10 -5 10 -4.00390625 7.51953125 C-3.52824219 6.62621094 -3.05257812 5.73289063 -2.5625 4.8125 C-2.08941406 3.91144531 -1.61632812 3.01039063 -1.12890625 2.08203125 C-0.75636719 1.39496094 -0.38382813 0.70789063 0 0 Z " fill="#020202" transform="translate(169,135)"/>
<path d="M0 0 C0.66 0 1.32 0 2 0 C2 0.66 2 1.32 2 2 C2.99 2 3.98 2 5 2 C5 2.99 5 3.98 5 5 C4.236875 4.835 3.47375 4.67 2.6875 4.5 C-0.03596236 3.90854604 -0.03596236 3.90854604 -3 4 C-1.625 2 -1.625 2 0 0 Z " fill="#121212" transform="translate(123,278)"/>
<path d="M0 0 C0.66 0.33 1.32 0.66 2 1 C0.02 3.31 -1.96 5.62 -4 8 C-4.66 7.67 -5.32 7.34 -6 7 C-4.02 4.69 -2.04 2.38 0 0 Z " fill="#030303" transform="translate(184,44)"/>
<path d="M0 0 C0.99 0 1.98 0 3 0 C3 0.99 3 1.98 3 3 C2.01 3 1.02 3 0 3 C0 2.01 0 1.02 0 0 Z " fill="#212121" transform="translate(167,317)"/>
<path d="M0 0 C0.99 0 1.98 0 3 0 C3 0.99 3 1.98 3 3 C2.01 3 1.02 3 0 3 C0 2.01 0 1.02 0 0 Z " fill="#202020" transform="translate(149,285)"/>
<path d="M0 0 C0.99 0 1.98 0 3 0 C3 0.99 3 1.98 3 3 C2.01 3 1.02 3 0 3 C0 2.01 0 1.02 0 0 Z " fill="#242424" transform="translate(8,278)"/>
<path d="M0 0 C0.99 0 1.98 0 3 0 C3 0.99 3 1.98 3 3 C2.01 3 1.02 3 0 3 C0 2.01 0 1.02 0 0 Z " fill="#212121" transform="translate(62,272)"/>
<path d="M0 0 C0.99 0 1.98 0 3 0 C3 0.99 3 1.98 3 3 C2.01 3 1.02 3 0 3 C0 2.01 0 1.02 0 0 Z " fill="#141414" transform="translate(206,267)"/>
<path d="M0 0 C0.99 0 1.98 0 3 0 C3 0.99 3 1.98 3 3 C2.01 3 1.02 3 0 3 C0 2.01 0 1.02 0 0 Z " fill="#212121" transform="translate(71,249)"/>
<path d="M0 0 C0.99 0 1.98 0 3 0 C3 0.99 3 1.98 3 3 C2.01 3 1.02 3 0 3 C0 2.01 0 1.02 0 0 Z " fill="#212121" transform="translate(197,237)"/>
<path d="M0 0 C0.99 0 1.98 0 3 0 C3 0.99 3 1.98 3 3 C2.01 3 1.02 3 0 3 C0 2.01 0 1.02 0 0 Z " fill="#222222" transform="translate(77,234)"/>
<path d="M0 0 C0.99 0 1.98 0 3 0 C3 0.99 3 1.98 3 3 C2.01 3 1.02 3 0 3 C0 2.01 0 1.02 0 0 Z " fill="#222222" transform="translate(167,234)"/>
<path d="M0 0 C0.99 0 1.98 0 3 0 C3 0.99 3 1.98 3 3 C2.01 3 1.02 3 0 3 C0 2.01 0 1.02 0 0 Z " fill="#212121" transform="translate(248,187)"/>
<path d="M0 0 C0.99 0 1.98 0 3 0 C3 0.99 3 1.98 3 3 C2.01 3 1.02 3 0 3 C0 2.01 0 1.02 0 0 Z " fill="#1F1F1F" transform="translate(188,179)"/>
<path d="M0 0 C0.99 0 1.98 0 3 0 C3 0.99 3 1.98 3 3 C2.01 3 1.02 3 0 3 C0 2.01 0 1.02 0 0 Z " fill="#222222" transform="translate(194,178)"/>
<path d="M0 0 C0.99 0 1.98 0 3 0 C3 0.99 3 1.98 3 3 C2.01 3 1.02 3 0 3 C0 2.01 0 1.02 0 0 Z " fill="#252525" transform="translate(68,140)"/>
<path d="M0 0 C0.99 0 1.98 0 3 0 C3 0.99 3 1.98 3 3 C2.01 3 1.02 3 0 3 C0 2.01 0 1.02 0 0 Z " fill="#242424" transform="translate(71,131)"/>
<path d="M0 0 C0.99 0 1.98 0 3 0 C3 0.99 3 1.98 3 3 C2.01 3 1.02 3 0 3 C0 2.01 0 1.02 0 0 Z " fill="#222222" transform="translate(263,119)"/>
<path d="M0 0 C0.99 0 1.98 0 3 0 C3 0.99 3 1.98 3 3 C2.01 3 1.02 3 0 3 C0 2.01 0 1.02 0 0 Z " fill="#222222" transform="translate(236,119)"/>
<path d="M0 0 C0.99 0 1.98 0 3 0 C3 0.99 3 1.98 3 3 C2.01 3 1.02 3 0 3 C0 2.01 0 1.02 0 0 Z " fill="#262626" transform="translate(20,87)"/>
<path d="M0 0 C0.99 0 1.98 0 3 0 C3 0.99 3 1.98 3 3 C2.01 3 1.02 3 0 3 C0 2.01 0 1.02 0 0 Z " fill="#202020" transform="translate(140,39)"/>
<path d="M0 0 C0.99 0 1.98 0 3 0 C3 0.99 3 1.98 3 3 C2.01 3 1.02 3 0 3 C0 2.01 0 1.02 0 0 Z " fill="#242424" transform="translate(203,19)"/>
<path d="M0 0 C0.99 0 1.98 0 3 0 C2.67 0.99 2.34 1.98 2 3 C1.34 3 0.68 3 0 3 C0 2.01 0 1.02 0 0 Z " fill="#202020" transform="translate(95,78)"/>
<path d="" fill="#000000" transform="translate(0,0)"/>
<path d="" fill="#000000" transform="translate(0,0)"/>
<path d="" fill="#000000" transform="translate(0,0)"/>
<path d="" fill="#000000" transform="translate(0,0)"/>
<path d="" fill="#000000" transform="translate(0,0)"/>
<path d="" fill="#000000" transform="translate(0,0)"/>
<path d="" fill="#000000" transform="translate(0,0)"/>
<path d="" fill="#000000" transform="translate(0,0)"/>
<path d="" fill="#000000" transform="translate(0,0)"/>
<path d="" fill="#000000" transform="translate(0,0)"/>
<path d="" fill="#000000" transform="translate(0,0)"/>
<path d="" fill="#000000" transform="translate(0,0)"/>
<path d="" fill="#000000" transform="translate(0,0)"/>
<path d="" fill="#000000" transform="translate(0,0)"/>
<path d="" fill="#000000" transform="translate(0,0)"/>
<path d="" fill="#000000" transform="translate(0,0)"/>
<path d="" fill="#000000" transform="translate(0,0)"/>
<path d="" fill="#000000" transform="translate(0,0)"/>
<path d="" fill="#000000" transform="translate(0,0)"/>
<path d="" fill="#000000" transform="translate(0,0)"/>
<path d="" fill="#000000" transform="translate(0,0)"/>
<path d="" fill="#000000" transform="translate(0,0)"/>
<path d="" fill="#000000" transform="translate(0,0)"/>
<path d="" fill="#000000" transform="translate(0,0)"/>
<path d="" fill="#000000" transform="translate(0,0)"/>
<path d="" fill="#000000" transform="translate(0,0)"/>
<path d="" fill="#000000" transform="translate(0,0)"/>
<path d="" fill="#000000" transform="translate(0,0)"/>
<path d="" fill="#000000" transform="translate(0,0)"/>
<path d="" fill="#000000" transform="translate(0,0)"/>
<path d="" fill="#000000" transform="translate(0,0)"/>
<path d="" fill="#000000" transform="translate(0,0)"/>
<path d="" fill="#000000" transform="translate(0,0)"/>
</svg>
